<svg xmlns="http://www.w3.org/2000/svg" xmlns:xlink="http://www.w3.org/1999/xlink" width="250" zoomAndPan="magnify" viewBox="0 0 187.5 187.499992" height="250" preserveAspectRatio="xMidYMid meet" version="1.0"><defs><g/><clipPath id="d5863ab2ae"><path d="M 4.285156 4.285156 L 183 4.285156 L 183 183 L 4.285156 183 Z M 4.285156 4.285156 " clip-rule="nonzero"/></clipPath><clipPath id="ae29da5caa"><rect x="0" width="100" y="0" height="101"/></clipPath><clipPath id="631aab4ab4"><rect x="0" width="90" y="0" height="19"/></clipPath><clipPath id="58b4ae363e"><rect x="0" width="49" y="0" height="16"/></clipPath></defs><path fill="#ffffff" d="M 0 0 L 187 0 L 187 187 L 0 187 Z M 0 0 " fill-opacity="1" fill-rule="nonzero"/><path fill="#fcf9f1" d="M 0 0 L 187 0 L 187 187 L 0 187 Z M 0 0 " fill-opacity="1" fill-rule="nonzero"/><path fill="#fcf9f1" d="M 0.589844 0.589844 L 186.414062 0.589844 L 186.414062 186.414062 L 0.589844 186.414062 Z M 0.589844 0.589844 " fill-opacity="1" fill-rule="nonzero"/><path fill="#78bab0" d="M 0 0 L 0 187 L 187 187 L 187 0 Z M 185.824219 185.824219 L 1.175781 185.824219 L 1.175781 1.175781 L 185.824219 1.175781 Z M 185.824219 185.824219 " fill-opacity="1" fill-rule="nonzero"/><g clip-path="url(#d5863ab2ae)"><path fill="#78bab0" d="M 4.847656 4.847656 L 182.148438 4.847656 L 182.148438 182.148438 L 4.847656 182.148438 Z M 4.847656 4.847656 " fill-opacity="1" fill-rule="nonzero"/><path fill="#78bab0" d="M 4.285156 4.285156 L 4.285156 182.707031 L 182.707031 182.707031 L 182.707031 4.285156 Z M 181.585938 181.585938 L 5.40625 181.585938 L 5.40625 5.40625 L 181.585938 5.40625 Z M 181.585938 181.585938 " fill-opacity="1" fill-rule="nonzero"/></g><g transform="matrix(1, 0, 0, 1, 44, 21)"><g clip-path="url(#ae29da5caa)"><g fill="#ffffff" fill-opacity="1"><g transform="translate(0.698979, 71.64068)"><g><path d="M 4.296875 -0.15625 L 4.296875 -15.46875 C 4.296875 -16.039062 4.304688 -16.425781 4.328125 -16.625 C 4.359375 -16.820312 4.445312 -16.992188 4.59375 -17.140625 C 4.75 -17.296875 4.972656 -17.375 5.265625 -17.375 C 5.835938 -17.375 6.148438 -17.113281 6.203125 -16.59375 C 6.347656 -11.53125 7.929688 -7.609375 10.953125 -4.828125 C 13.910156 -2.054688 17.929688 -0.671875 23.015625 -0.671875 C 26.078125 -0.671875 28.554688 -1.769531 30.453125 -3.96875 C 32.347656 -6.175781 33.296875 -8.726562 33.296875 -11.625 C 33.296875 -14.382812 32.5 -16.738281 30.90625 -18.6875 C 30.226562 -19.5625 29.472656 -20.273438 28.640625 -20.828125 C 27.804688 -21.390625 27.132812 -21.757812 26.625 -21.9375 C 26.113281 -22.113281 25.375 -22.328125 24.40625 -22.578125 C 18.070312 -24.085938 14.707031 -24.929688 14.3125 -25.109375 C 11.300781 -26.128906 8.878906 -27.925781 7.046875 -30.5 C 5.210938 -33.082031 4.296875 -35.957031 4.296875 -39.125 C 4.296875 -43.207031 5.734375 -46.695312 8.609375 -49.59375 C 11.484375 -52.5 15.015625 -53.953125 19.203125 -53.953125 C 21.296875 -53.953125 23.21875 -53.625 24.96875 -52.96875 C 26.726562 -52.3125 27.96875 -51.679688 28.6875 -51.078125 C 29.414062 -50.484375 30.34375 -49.648438 31.46875 -48.578125 L 34.125 -52.953125 C 34.519531 -53.617188 34.90625 -53.953125 35.28125 -53.953125 C 35.675781 -53.953125 35.914062 -53.832031 36 -53.59375 C 36.09375 -53.363281 36.140625 -52.875 36.140625 -52.125 L 36.140625 -36.734375 C 36.140625 -36.160156 36.125 -35.773438 36.09375 -35.578125 C 36.070312 -35.378906 35.976562 -35.21875 35.8125 -35.09375 C 35.65625 -34.96875 35.425781 -34.90625 35.125 -34.90625 C 34.625 -34.90625 34.3125 -35.203125 34.1875 -35.796875 C 32.769531 -46.460938 27.800781 -51.796875 19.28125 -51.796875 C 16.363281 -51.796875 13.953125 -50.816406 12.046875 -48.859375 C 10.140625 -46.898438 9.1875 -44.539062 9.1875 -41.78125 C 9.1875 -39.539062 9.882812 -37.503906 11.28125 -35.671875 C 12.675781 -33.835938 14.554688 -32.632812 16.921875 -32.0625 L 26.71875 -29.703125 C 29.976562 -28.929688 32.703125 -27.097656 34.890625 -24.203125 C 37.085938 -21.316406 38.1875 -17.992188 38.1875 -14.234375 C 38.1875 -9.898438 36.769531 -6.160156 33.9375 -3.015625 C 31.113281 0.117188 27.5 1.6875 23.09375 1.6875 C 19.925781 1.6875 17.125 1.160156 14.6875 0.109375 C 12.25 -0.929688 10.367188 -2.1875 9.046875 -3.65625 C 8.023438 -1.96875 7.175781 -0.648438 6.5 0.296875 L 6.28125 0.671875 C 5.882812 1.347656 5.5 1.6875 5.125 1.6875 C 4.71875 1.6875 4.476562 1.5625 4.40625 1.3125 C 4.332031 1.0625 4.296875 0.570312 4.296875 -0.15625 Z M 4.296875 -0.15625 "/></g></g></g><g fill="#ffffff" fill-opacity="1"><g transform="translate(44.136564, 71.64068)"><g><path d="M 2.765625 0 L 2.765625 -2.359375 L 4.59375 -2.359375 C 7.363281 -2.359375 9.066406 -2.585938 9.703125 -3.046875 C 10.335938 -3.503906 10.65625 -4.484375 10.65625 -5.984375 L 10.65625 -46.296875 C 10.65625 -47.765625 10.328125 -48.726562 9.671875 -49.1875 C 9.023438 -49.65625 7.332031 -49.890625 4.59375 -49.890625 L 2.765625 -49.890625 L 2.765625 -52.28125 L 30.75 -52.28125 C 35.613281 -52.28125 39.660156 -50.976562 42.890625 -48.375 C 46.128906 -45.769531 47.75 -42.757812 47.75 -39.34375 C 47.75 -36.53125 46.5625 -34.003906 44.1875 -31.765625 C 41.8125 -29.523438 38.765625 -28.039062 35.046875 -27.3125 C 39.285156 -26.863281 42.804688 -25.363281 45.609375 -22.8125 C 48.410156 -20.257812 49.8125 -17.328125 49.8125 -14.015625 C 49.8125 -10.273438 48.203125 -7.003906 44.984375 -4.203125 C 41.773438 -1.398438 37.703125 0 32.765625 0 Z M 17 -5.421875 C 17 -4.097656 17.1875 -3.253906 17.5625 -2.890625 C 17.9375 -2.535156 18.992188 -2.359375 20.734375 -2.359375 L 30.3125 -2.359375 C 33.96875 -2.359375 36.851562 -3.554688 38.96875 -5.953125 C 41.09375 -8.359375 42.15625 -11.066406 42.15625 -14.078125 C 42.15625 -17.097656 41.222656 -19.894531 39.359375 -22.46875 C 37.503906 -25.050781 34.847656 -26.34375 31.390625 -26.34375 L 17 -26.34375 Z M 17 -28.03125 L 28.09375 -28.03125 C 32.03125 -28.03125 35.050781 -29.210938 37.15625 -31.578125 C 39.269531 -33.941406 40.328125 -36.53125 40.328125 -39.34375 C 40.328125 -41.84375 39.484375 -44.222656 37.796875 -46.484375 C 36.117188 -48.753906 33.597656 -49.890625 30.234375 -49.890625 L 20.734375 -49.890625 C 18.992188 -49.890625 17.9375 -49.710938 17.5625 -49.359375 C 17.1875 -49.015625 17 -48.171875 17 -46.828125 Z M 17 -28.03125 "/></g></g></g></g></g><path stroke-linecap="butt" transform="matrix(0.747973, -0.00690355, 0.00690355, 0.747973, 63.116118, 116.766265)" fill="none" stroke-linejoin="miter" d="M 0.00203293 0.500517 L 81.237192 0.49826 " stroke="#ffffff" stroke-width="1" stroke-opacity="1" stroke-miterlimit="4"/><g transform="matrix(1, 0, 0, 1, 50, 129)"><g clip-path="url(#631aab4ab4)"><g fill="#ffffff" fill-opacity="1"><g transform="translate(0.811161, 14.062555)"><g><path d="M 2.171875 -7.59375 C 2.171875 -7.207031 2.265625 -6.867188 2.453125 -6.578125 C 2.640625 -6.285156 2.867188 -6.039062 3.140625 -5.84375 C 3.421875 -5.65625 3.800781 -5.414062 4.28125 -5.125 C 4.800781 -4.8125 5.203125 -4.546875 5.484375 -4.328125 C 5.773438 -4.117188 6.019531 -3.851562 6.21875 -3.53125 C 6.425781 -3.207031 6.53125 -2.820312 6.53125 -2.375 C 6.53125 -1.894531 6.410156 -1.460938 6.171875 -1.078125 C 5.929688 -0.691406 5.578125 -0.382812 5.109375 -0.15625 C 4.648438 0.0625 4.097656 0.171875 3.453125 0.171875 C 2.679688 0.171875 1.976562 0 1.34375 -0.34375 C 1.289062 -0.375 1.253906 -0.410156 1.234375 -0.453125 C 1.222656 -0.492188 1.21875 -0.550781 1.21875 -0.625 L 1.015625 -2.65625 C 1.003906 -2.695312 1.023438 -2.722656 1.078125 -2.734375 C 1.140625 -2.742188 1.175781 -2.726562 1.1875 -2.6875 C 1.34375 -1.96875 1.632812 -1.347656 2.0625 -0.828125 C 2.5 -0.316406 3.078125 -0.0625 3.796875 -0.0625 C 4.296875 -0.0625 4.71875 -0.195312 5.0625 -0.46875 C 5.40625 -0.738281 5.578125 -1.175781 5.578125 -1.78125 C 5.578125 -2.226562 5.476562 -2.613281 5.28125 -2.9375 C 5.082031 -3.269531 4.835938 -3.539062 4.546875 -3.75 C 4.265625 -3.96875 3.878906 -4.222656 3.390625 -4.515625 C 2.910156 -4.804688 2.535156 -5.054688 2.265625 -5.265625 C 1.992188 -5.472656 1.757812 -5.734375 1.5625 -6.046875 C 1.375 -6.367188 1.28125 -6.742188 1.28125 -7.171875 C 1.28125 -7.671875 1.410156 -8.097656 1.671875 -8.453125 C 1.941406 -8.804688 2.285156 -9.070312 2.703125 -9.25 C 3.128906 -9.425781 3.582031 -9.515625 4.0625 -9.515625 C 4.65625 -9.515625 5.238281 -9.394531 5.8125 -9.15625 C 5.96875 -9.101562 6.046875 -9.015625 6.046875 -8.890625 L 6.140625 -7.171875 C 6.140625 -7.140625 6.113281 -7.125 6.0625 -7.125 C 6.019531 -7.125 5.992188 -7.140625 5.984375 -7.171875 C 5.898438 -7.691406 5.679688 -8.171875 5.328125 -8.609375 C 4.984375 -9.054688 4.484375 -9.28125 3.828125 -9.28125 C 3.265625 -9.28125 2.847656 -9.117188 2.578125 -8.796875 C 2.304688 -8.472656 2.171875 -8.070312 2.171875 -7.59375 Z M 2.171875 -7.59375 "/></g></g></g><g fill="#ffffff" fill-opacity="1"><g transform="translate(10.36455, 14.062555)"><g><path d="M 10.453125 -0.171875 C 10.492188 -0.171875 10.515625 -0.140625 10.515625 -0.078125 C 10.515625 -0.0234375 10.492188 0 10.453125 0 C 10.265625 0 9.96875 -0.0078125 9.5625 -0.03125 C 9.164062 -0.0507812 8.878906 -0.0625 8.703125 -0.0625 C 8.484375 -0.0625 8.203125 -0.0507812 7.859375 -0.03125 C 7.546875 -0.0078125 7.300781 0 7.125 0 C 7.09375 0 7.078125 -0.0234375 7.078125 -0.078125 C 7.078125 -0.140625 7.09375 -0.171875 7.125 -0.171875 C 7.5 -0.171875 7.769531 -0.207031 7.9375 -0.28125 C 8.101562 -0.351562 8.1875 -0.472656 8.1875 -0.640625 C 8.1875 -0.785156 8.125 -1 8 -1.28125 L 6.671875 -4.109375 L 3.109375 -4.109375 L 2.171875 -1.90625 C 2.023438 -1.5625 1.953125 -1.285156 1.953125 -1.078125 C 1.953125 -0.765625 2.070312 -0.535156 2.3125 -0.390625 C 2.5625 -0.242188 2.929688 -0.171875 3.421875 -0.171875 C 3.472656 -0.171875 3.5 -0.140625 3.5 -0.078125 C 3.5 -0.0234375 3.472656 0 3.421875 0 C 3.242188 0 2.984375 -0.0078125 2.640625 -0.03125 C 2.265625 -0.0507812 1.9375 -0.0625 1.65625 -0.0625 C 1.394531 -0.0625 1.097656 -0.0507812 0.765625 -0.03125 C 0.460938 -0.0078125 0.210938 0 0.015625 0 C -0.0351562 0 -0.0625 -0.0234375 -0.0625 -0.078125 C -0.0625 -0.140625 -0.0351562 -0.171875 0.015625 -0.171875 C 0.296875 -0.171875 0.53125 -0.222656 0.71875 -0.328125 C 0.914062 -0.441406 1.101562 -0.628906 1.28125 -0.890625 C 1.457031 -1.148438 1.648438 -1.53125 1.859375 -2.03125 L 5.015625 -9.484375 C 5.035156 -9.515625 5.066406 -9.53125 5.109375 -9.53125 C 5.160156 -9.53125 5.191406 -9.515625 5.203125 -9.484375 L 8.734375 -2.046875 C 9.066406 -1.304688 9.351562 -0.804688 9.59375 -0.546875 C 9.832031 -0.296875 10.117188 -0.171875 10.453125 -0.171875 Z M 3.234375 -4.40625 L 6.53125 -4.40625 L 4.78125 -8.109375 Z M 3.234375 -4.40625 "/></g></g></g><g fill="#ffffff" fill-opacity="1"><g transform="translate(22.892803, 14.062555)"><g><path d="M 6.140625 -9.515625 C 6.773438 -9.515625 7.304688 -9.46875 7.734375 -9.375 C 8.160156 -9.28125 8.585938 -9.125 9.015625 -8.90625 C 9.085938 -8.875 9.128906 -8.84375 9.140625 -8.8125 C 9.148438 -8.78125 9.164062 -8.703125 9.1875 -8.578125 L 9.359375 -6.796875 C 9.359375 -6.773438 9.332031 -6.757812 9.28125 -6.75 C 9.226562 -6.75 9.195312 -6.757812 9.1875 -6.78125 C 8.726562 -8.445312 7.695312 -9.28125 6.09375 -9.28125 C 5.257812 -9.28125 4.523438 -9.09375 3.890625 -8.71875 C 3.253906 -8.351562 2.757812 -7.828125 2.40625 -7.140625 C 2.0625 -6.460938 1.890625 -5.671875 1.890625 -4.765625 C 1.890625 -3.898438 2.078125 -3.101562 2.453125 -2.375 C 2.835938 -1.65625 3.359375 -1.085938 4.015625 -0.671875 C 4.671875 -0.253906 5.378906 -0.046875 6.140625 -0.046875 C 6.960938 -0.046875 7.625 -0.242188 8.125 -0.640625 C 8.632812 -1.035156 9.023438 -1.644531 9.296875 -2.46875 C 9.296875 -2.488281 9.320312 -2.5 9.375 -2.5 C 9.445312 -2.5 9.484375 -2.484375 9.484375 -2.453125 L 9.328125 -0.8125 C 9.316406 -0.6875 9.300781 -0.609375 9.28125 -0.578125 C 9.257812 -0.546875 9.222656 -0.515625 9.171875 -0.484375 C 8.648438 -0.234375 8.160156 -0.0625 7.703125 0.03125 C 7.253906 0.132812 6.734375 0.1875 6.140625 0.1875 C 5.097656 0.1875 4.164062 -0.015625 3.34375 -0.421875 C 2.519531 -0.835938 1.878906 -1.421875 1.421875 -2.171875 C 0.960938 -2.921875 0.734375 -3.773438 0.734375 -4.734375 C 0.734375 -5.671875 0.96875 -6.5 1.4375 -7.21875 C 1.90625 -7.945312 2.550781 -8.507812 3.375 -8.90625 C 4.195312 -9.3125 5.117188 -9.515625 6.140625 -9.515625 Z M 6.140625 -9.515625 "/></g></g></g><g fill="#ffffff" fill-opacity="1"><g transform="translate(35.361291, 14.062555)"><g><path d="M 5.46875 0.171875 C 4.539062 0.171875 3.710938 -0.0390625 2.984375 -0.46875 C 2.265625 -0.90625 1.707031 -1.492188 1.3125 -2.234375 C 0.925781 -2.972656 0.734375 -3.785156 0.734375 -4.671875 C 0.734375 -5.691406 0.988281 -6.566406 1.5 -7.296875 C 2.019531 -8.035156 2.6875 -8.585938 3.5 -8.953125 C 4.3125 -9.328125 5.144531 -9.515625 6 -9.515625 C 6.945312 -9.515625 7.773438 -9.289062 8.484375 -8.84375 C 9.203125 -8.394531 9.753906 -7.804688 10.140625 -7.078125 C 10.523438 -6.359375 10.71875 -5.585938 10.71875 -4.765625 C 10.71875 -3.859375 10.476562 -3.023438 10 -2.265625 C 9.519531 -1.515625 8.878906 -0.921875 8.078125 -0.484375 C 7.273438 -0.046875 6.40625 0.171875 5.46875 0.171875 Z M 6 -0.140625 C 6.675781 -0.140625 7.285156 -0.300781 7.828125 -0.625 C 8.367188 -0.957031 8.796875 -1.441406 9.109375 -2.078125 C 9.421875 -2.710938 9.578125 -3.46875 9.578125 -4.34375 C 9.578125 -5.28125 9.398438 -6.113281 9.046875 -6.84375 C 8.703125 -7.570312 8.210938 -8.140625 7.578125 -8.546875 C 6.953125 -8.960938 6.21875 -9.171875 5.375 -9.171875 C 4.269531 -9.171875 3.410156 -8.816406 2.796875 -8.109375 C 2.179688 -7.398438 1.875 -6.425781 1.875 -5.1875 C 1.875 -4.25 2.046875 -3.394531 2.390625 -2.625 C 2.742188 -1.851562 3.234375 -1.242188 3.859375 -0.796875 C 4.484375 -0.359375 5.195312 -0.140625 6 -0.140625 Z M 6 -0.140625 "/></g></g></g><g fill="#ffffff" fill-opacity="1"><g transform="translate(49.025705, 14.062555)"><g/></g></g><g fill="#ffffff" fill-opacity="1"><g transform="translate(54.737163, 14.062555)"><g><path d="M 4.96875 -5.265625 C 5.75 -5.203125 6.378906 -4.9375 6.859375 -4.46875 C 7.347656 -4.007812 7.59375 -3.4375 7.59375 -2.75 C 7.59375 -2.21875 7.460938 -1.738281 7.203125 -1.3125 C 6.941406 -0.882812 6.582031 -0.546875 6.125 -0.296875 C 5.675781 -0.0546875 5.175781 0.0625 4.625 0.0625 C 4.289062 0.0625 3.929688 0.046875 3.546875 0.015625 C 3.398438 0.00390625 3.234375 -0.00390625 3.046875 -0.015625 C 2.859375 -0.0234375 2.648438 -0.03125 2.421875 -0.03125 L 1.40625 -0.015625 C 1.226562 -0.00390625 0.972656 0 0.640625 0 C 0.617188 0 0.609375 -0.0234375 0.609375 -0.078125 C 0.609375 -0.140625 0.617188 -0.171875 0.640625 -0.171875 C 1.015625 -0.171875 1.289062 -0.195312 1.46875 -0.25 C 1.644531 -0.3125 1.765625 -0.410156 1.828125 -0.546875 C 1.898438 -0.691406 1.9375 -0.914062 1.9375 -1.21875 L 1.9375 -8.140625 C 1.9375 -8.429688 1.90625 -8.644531 1.84375 -8.78125 C 1.78125 -8.925781 1.660156 -9.023438 1.484375 -9.078125 C 1.304688 -9.140625 1.035156 -9.171875 0.671875 -9.171875 C 0.640625 -9.171875 0.625 -9.195312 0.625 -9.25 C 0.625 -9.3125 0.640625 -9.34375 0.671875 -9.34375 L 1.40625 -9.328125 C 1.820312 -9.304688 2.160156 -9.296875 2.421875 -9.296875 C 2.597656 -9.296875 2.765625 -9.300781 2.921875 -9.3125 C 3.078125 -9.320312 3.207031 -9.332031 3.3125 -9.34375 C 3.625 -9.375 3.914062 -9.390625 4.1875 -9.390625 C 5.019531 -9.390625 5.644531 -9.207031 6.0625 -8.84375 C 6.488281 -8.476562 6.703125 -8.003906 6.703125 -7.421875 C 6.703125 -6.941406 6.546875 -6.515625 6.234375 -6.140625 C 5.921875 -5.765625 5.5 -5.472656 4.96875 -5.265625 Z M 3.875 -9.171875 C 3.613281 -9.171875 3.414062 -9.144531 3.28125 -9.09375 C 3.15625 -9.050781 3.0625 -8.957031 3 -8.8125 C 2.945312 -8.664062 2.921875 -8.429688 2.921875 -8.109375 L 2.921875 -5.265625 L 3.59375 -5.25 C 4.320312 -5.25 4.859375 -5.4375 5.203125 -5.8125 C 5.554688 -6.1875 5.734375 -6.679688 5.734375 -7.296875 C 5.734375 -7.859375 5.578125 -8.3125 5.265625 -8.65625 C 4.960938 -9 4.5 -9.171875 3.875 -9.171875 Z M 4.390625 -0.203125 C 5.117188 -0.203125 5.660156 -0.390625 6.015625 -0.765625 C 6.367188 -1.140625 6.546875 -1.675781 6.546875 -2.375 C 6.546875 -3.132812 6.320312 -3.75 5.875 -4.21875 C 5.4375 -4.6875 4.828125 -4.925781 4.046875 -4.9375 C 3.734375 -4.945312 3.359375 -4.9375 2.921875 -4.90625 L 2.921875 -1.21875 C 2.921875 -0.957031 2.957031 -0.753906 3.03125 -0.609375 C 3.101562 -0.472656 3.242188 -0.367188 3.453125 -0.296875 C 3.671875 -0.234375 3.984375 -0.203125 4.390625 -0.203125 Z M 4.390625 -0.203125 "/></g></g></g><g fill="#ffffff" fill-opacity="1"><g transform="translate(65.292157, 14.062555)"><g><path d="M 10.453125 -0.171875 C 10.492188 -0.171875 10.515625 -0.140625 10.515625 -0.078125 C 10.515625 -0.0234375 10.492188 0 10.453125 0 C 10.265625 0 9.96875 -0.0078125 9.5625 -0.03125 C 9.164062 -0.0507812 8.878906 -0.0625 8.703125 -0.0625 C 8.484375 -0.0625 8.203125 -0.0507812 7.859375 -0.03125 C 7.546875 -0.0078125 7.300781 0 7.125 0 C 7.09375 0 7.078125 -0.0234375 7.078125 -0.078125 C 7.078125 -0.140625 7.09375 -0.171875 7.125 -0.171875 C 7.5 -0.171875 7.769531 -0.207031 7.9375 -0.28125 C 8.101562 -0.351562 8.1875 -0.472656 8.1875 -0.640625 C 8.1875 -0.785156 8.125 -1 8 -1.28125 L 6.671875 -4.109375 L 3.109375 -4.109375 L 2.171875 -1.90625 C 2.023438 -1.5625 1.953125 -1.285156 1.953125 -1.078125 C 1.953125 -0.765625 2.070312 -0.535156 2.3125 -0.390625 C 2.5625 -0.242188 2.929688 -0.171875 3.421875 -0.171875 C 3.472656 -0.171875 3.5 -0.140625 3.5 -0.078125 C 3.5 -0.0234375 3.472656 0 3.421875 0 C 3.242188 0 2.984375 -0.0078125 2.640625 -0.03125 C 2.265625 -0.0507812 1.9375 -0.0625 1.65625 -0.0625 C 1.394531 -0.0625 1.097656 -0.0507812 0.765625 -0.03125 C 0.460938 -0.0078125 0.210938 0 0.015625 0 C -0.0351562 0 -0.0625 -0.0234375 -0.0625 -0.078125 C -0.0625 -0.140625 -0.0351562 -0.171875 0.015625 -0.171875 C 0.296875 -0.171875 0.53125 -0.222656 0.71875 -0.328125 C 0.914062 -0.441406 1.101562 -0.628906 1.28125 -0.890625 C 1.457031 -1.148438 1.648438 -1.53125 1.859375 -2.03125 L 5.015625 -9.484375 C 5.035156 -9.515625 5.066406 -9.53125 5.109375 -9.53125 C 5.160156 -9.53125 5.191406 -9.515625 5.203125 -9.484375 L 8.734375 -2.046875 C 9.066406 -1.304688 9.351562 -0.804688 9.59375 -0.546875 C 9.832031 -0.296875 10.117188 -0.171875 10.453125 -0.171875 Z M 3.234375 -4.40625 L 6.53125 -4.40625 L 4.78125 -8.109375 Z M 3.234375 -4.40625 "/></g></g></g><g fill="#ffffff" fill-opacity="1"><g transform="translate(77.072839, 14.062555)"><g><path d="M 9.1875 -9.34375 C 9.207031 -9.34375 9.21875 -9.3125 9.21875 -9.25 C 9.21875 -9.195312 9.207031 -9.171875 9.1875 -9.171875 C 8.820312 -9.171875 8.453125 -9.035156 8.078125 -8.765625 C 7.710938 -8.503906 7.390625 -8.144531 7.109375 -7.6875 L 5.09375 -4.609375 L 5.09375 -1.21875 C 5.09375 -0.90625 5.125 -0.675781 5.1875 -0.53125 C 5.25 -0.394531 5.363281 -0.300781 5.53125 -0.25 C 5.707031 -0.195312 5.988281 -0.171875 6.375 -0.171875 C 6.40625 -0.171875 6.421875 -0.140625 6.421875 -0.078125 C 6.421875 -0.0234375 6.40625 0 6.375 0 C 6.0625 0 5.820312 -0.00390625 5.65625 -0.015625 L 4.609375 -0.03125 L 3.578125 -0.015625 C 3.390625 -0.00390625 3.144531 0 2.84375 0 C 2.8125 0 2.796875 -0.0234375 2.796875 -0.078125 C 2.796875 -0.140625 2.8125 -0.171875 2.84375 -0.171875 C 3.21875 -0.171875 3.492188 -0.195312 3.671875 -0.25 C 3.847656 -0.300781 3.96875 -0.398438 4.03125 -0.546875 C 4.09375 -0.691406 4.125 -0.914062 4.125 -1.21875 L 4.125 -4.359375 L 1.640625 -8 C 1.359375 -8.4375 1.09375 -8.738281 0.84375 -8.90625 C 0.601562 -9.082031 0.316406 -9.171875 -0.015625 -9.171875 C -0.046875 -9.171875 -0.0625 -9.195312 -0.0625 -9.25 C -0.0625 -9.3125 -0.046875 -9.34375 -0.015625 -9.34375 C 0.109375 -9.34375 0.285156 -9.332031 0.515625 -9.3125 L 1.046875 -9.296875 C 1.390625 -9.296875 1.816406 -9.304688 2.328125 -9.328125 L 3.140625 -9.34375 C 3.160156 -9.34375 3.171875 -9.3125 3.171875 -9.25 C 3.171875 -9.195312 3.160156 -9.171875 3.140625 -9.171875 C 2.617188 -9.171875 2.359375 -9.066406 2.359375 -8.859375 C 2.359375 -8.742188 2.410156 -8.617188 2.515625 -8.484375 L 4.921875 -4.953125 L 6.75 -7.75 C 6.96875 -8.09375 7.078125 -8.382812 7.078125 -8.625 C 7.078125 -8.988281 6.804688 -9.171875 6.265625 -9.171875 C 6.242188 -9.171875 6.234375 -9.195312 6.234375 -9.25 C 6.234375 -9.3125 6.242188 -9.34375 6.265625 -9.34375 L 6.96875 -9.328125 C 7.34375 -9.304688 7.691406 -9.296875 8.015625 -9.296875 C 8.179688 -9.296875 8.382812 -9.304688 8.625 -9.328125 Z M 9.1875 -9.34375 "/></g></g></g></g></g><g transform="matrix(1, 0, 0, 1, 70, 146)"><g clip-path="url(#58b4ae363e)"><g fill="#ffffff" fill-opacity="1"><g transform="translate(0.808315, 10.945882)"><g><path d="M 8.625 -0.140625 C 8.644531 -0.140625 8.65625 -0.113281 8.65625 -0.0625 C 8.65625 -0.0195312 8.644531 0 8.625 0 C 8.375 0 8.179688 -0.00390625 8.046875 -0.015625 L 7.234375 -0.03125 L 6.421875 -0.015625 C 6.285156 -0.00390625 6.097656 0 5.859375 0 C 5.828125 0 5.8125 -0.0195312 5.8125 -0.0625 C 5.8125 -0.113281 5.828125 -0.140625 5.859375 -0.140625 C 6.171875 -0.140625 6.398438 -0.160156 6.546875 -0.203125 C 6.691406 -0.242188 6.789062 -0.316406 6.84375 -0.421875 C 6.894531 -0.535156 6.921875 -0.71875 6.921875 -0.96875 L 6.921875 -3.78125 L 2.140625 -3.78125 L 2.140625 -0.96875 C 2.140625 -0.71875 2.164062 -0.535156 2.21875 -0.421875 C 2.269531 -0.316406 2.367188 -0.242188 2.515625 -0.203125 C 2.660156 -0.160156 2.890625 -0.140625 3.203125 -0.140625 C 3.222656 -0.140625 3.234375 -0.113281 3.234375 -0.0625 C 3.234375 -0.0195312 3.222656 0 3.203125 0 C 2.960938 0 2.773438 -0.00390625 2.640625 -0.015625 L 1.8125 -0.03125 L 1.03125 -0.015625 C 0.882812 -0.00390625 0.6875 0 0.4375 0 C 0.414062 0 0.40625 -0.0195312 0.40625 -0.0625 C 0.40625 -0.113281 0.414062 -0.140625 0.4375 -0.140625 C 0.738281 -0.140625 0.960938 -0.160156 1.109375 -0.203125 C 1.265625 -0.242188 1.367188 -0.320312 1.421875 -0.4375 C 1.484375 -0.550781 1.515625 -0.726562 1.515625 -0.96875 L 1.515625 -6.515625 C 1.515625 -6.753906 1.488281 -6.925781 1.4375 -7.03125 C 1.382812 -7.144531 1.28125 -7.222656 1.125 -7.265625 C 0.976562 -7.316406 0.75 -7.34375 0.4375 -7.34375 C 0.425781 -7.34375 0.421875 -7.363281 0.421875 -7.40625 C 0.421875 -7.457031 0.425781 -7.484375 0.4375 -7.484375 L 1.03125 -7.46875 C 1.363281 -7.445312 1.625 -7.4375 1.8125 -7.4375 C 2.03125 -7.4375 2.304688 -7.445312 2.640625 -7.46875 L 3.203125 -7.484375 C 3.222656 -7.484375 3.234375 -7.457031 3.234375 -7.40625 C 3.234375 -7.363281 3.222656 -7.34375 3.203125 -7.34375 C 2.890625 -7.34375 2.660156 -7.316406 2.515625 -7.265625 C 2.367188 -7.210938 2.269531 -7.128906 2.21875 -7.015625 C 2.164062 -6.898438 2.140625 -6.722656 2.140625 -6.484375 L 2.140625 -4.015625 L 6.921875 -4.015625 L 6.921875 -6.484375 C 6.921875 -6.722656 6.894531 -6.898438 6.84375 -7.015625 C 6.789062 -7.128906 6.6875 -7.210938 6.53125 -7.265625 C 6.382812 -7.316406 6.160156 -7.34375 5.859375 -7.34375 C 5.828125 -7.34375 5.8125 -7.363281 5.8125 -7.40625 C 5.8125 -7.457031 5.828125 -7.484375 5.859375 -7.484375 L 6.421875 -7.46875 C 6.753906 -7.445312 7.023438 -7.4375 7.234375 -7.4375 C 7.441406 -7.4375 7.710938 -7.445312 8.046875 -7.46875 L 8.625 -7.484375 C 8.644531 -7.484375 8.65625 -7.457031 8.65625 -7.40625 C 8.65625 -7.363281 8.644531 -7.34375 8.625 -7.34375 C 8.3125 -7.34375 8.078125 -7.316406 7.921875 -7.265625 C 7.773438 -7.222656 7.675781 -7.144531 7.625 -7.03125 C 7.570312 -6.925781 7.546875 -6.753906 7.546875 -6.515625 L 7.546875 -0.96875 C 7.546875 -0.726562 7.570312 -0.550781 7.625 -0.4375 C 7.675781 -0.320312 7.773438 -0.242188 7.921875 -0.203125 C 8.078125 -0.160156 8.3125 -0.140625 8.625 -0.140625 Z M 8.625 -0.140625 "/></g></g></g><g fill="#ffffff" fill-opacity="1"><g transform="translate(11.647842, 10.945882)"><g><path d="M 4.375 0.140625 C 3.632812 0.140625 2.972656 -0.03125 2.390625 -0.375 C 1.816406 -0.71875 1.375 -1.1875 1.0625 -1.78125 C 0.75 -2.382812 0.59375 -3.035156 0.59375 -3.734375 C 0.59375 -4.554688 0.796875 -5.257812 1.203125 -5.84375 C 1.617188 -6.425781 2.148438 -6.863281 2.796875 -7.15625 C 3.453125 -7.457031 4.117188 -7.609375 4.796875 -7.609375 C 5.554688 -7.609375 6.222656 -7.429688 6.796875 -7.078125 C 7.367188 -6.722656 7.804688 -6.253906 8.109375 -5.671875 C 8.421875 -5.085938 8.578125 -4.46875 8.578125 -3.8125 C 8.578125 -3.09375 8.382812 -2.425781 8 -1.8125 C 7.625 -1.207031 7.113281 -0.726562 6.46875 -0.375 C 5.820312 -0.03125 5.125 0.140625 4.375 0.140625 Z M 4.8125 -0.09375 C 5.375 -0.09375 5.882812 -0.222656 6.34375 -0.484375 C 6.800781 -0.753906 7.160156 -1.144531 7.421875 -1.65625 C 7.679688 -2.164062 7.8125 -2.773438 7.8125 -3.484375 C 7.8125 -4.234375 7.664062 -4.898438 7.375 -5.484375 C 7.082031 -6.078125 6.671875 -6.535156 6.140625 -6.859375 C 5.609375 -7.179688 4.992188 -7.34375 4.296875 -7.34375 C 3.367188 -7.34375 2.644531 -7.054688 2.125 -6.484375 C 1.613281 -5.910156 1.359375 -5.128906 1.359375 -4.140625 C 1.359375 -3.398438 1.5 -2.71875 1.78125 -2.09375 C 2.070312 -1.476562 2.484375 -0.988281 3.015625 -0.625 C 3.546875 -0.269531 4.144531 -0.09375 4.8125 -0.09375 Z M 4.8125 -0.09375 "/></g></g></g><g fill="#ffffff" fill-opacity="1"><g transform="translate(22.367719, 10.945882)"><g><path d="M 2.15625 -7.28125 C 1.65625 -7.28125 1.285156 -7.160156 1.046875 -6.921875 C 0.816406 -6.679688 0.664062 -6.253906 0.59375 -5.640625 C 0.59375 -5.617188 0.566406 -5.609375 0.515625 -5.609375 C 0.460938 -5.609375 0.4375 -5.617188 0.4375 -5.640625 C 0.46875 -5.847656 0.503906 -6.191406 0.546875 -6.671875 C 0.585938 -7.148438 0.609375 -7.507812 0.609375 -7.75 C 0.609375 -7.78125 0.628906 -7.796875 0.671875 -7.796875 C 0.722656 -7.796875 0.75 -7.78125 0.75 -7.75 C 0.75 -7.570312 0.960938 -7.484375 1.390625 -7.484375 C 2.078125 -7.453125 2.878906 -7.4375 3.796875 -7.4375 C 4.265625 -7.4375 4.765625 -7.445312 5.296875 -7.46875 L 6.109375 -7.484375 C 6.390625 -7.484375 6.597656 -7.5 6.734375 -7.53125 C 6.867188 -7.570312 6.957031 -7.65625 7 -7.78125 C 7.007812 -7.8125 7.035156 -7.828125 7.078125 -7.828125 C 7.117188 -7.828125 7.140625 -7.8125 7.140625 -7.78125 C 7.109375 -7.550781 7.082031 -7.207031 7.0625 -6.75 C 7.039062 -6.289062 7.03125 -5.921875 7.03125 -5.640625 C 7.03125 -5.617188 7.003906 -5.609375 6.953125 -5.609375 C 6.898438 -5.609375 6.875 -5.617188 6.875 -5.640625 C 6.875 -6.054688 6.832031 -6.378906 6.75 -6.609375 C 6.664062 -6.847656 6.519531 -7.019531 6.3125 -7.125 C 6.101562 -7.226562 5.8125 -7.28125 5.4375 -7.28125 C 5.019531 -7.28125 4.726562 -7.265625 4.5625 -7.234375 C 4.394531 -7.203125 4.28125 -7.132812 4.21875 -7.03125 C 4.15625 -6.925781 4.125 -6.742188 4.125 -6.484375 L 4.125 -0.96875 C 4.125 -0.71875 4.148438 -0.535156 4.203125 -0.421875 C 4.265625 -0.316406 4.378906 -0.242188 4.546875 -0.203125 C 4.710938 -0.160156 4.976562 -0.140625 5.34375 -0.140625 C 5.351562 -0.140625 5.359375 -0.113281 5.359375 -0.0625 C 5.359375 -0.0195312 5.351562 0 5.34375 0 C 5.070312 0 4.863281 -0.00390625 4.71875 -0.015625 L 3.796875 -0.03125 L 2.921875 -0.015625 C 2.765625 -0.00390625 2.546875 0 2.265625 0 C 2.242188 0 2.234375 -0.0195312 2.234375 -0.0625 C 2.234375 -0.113281 2.242188 -0.140625 2.265625 -0.140625 C 2.617188 -0.140625 2.878906 -0.160156 3.046875 -0.203125 C 3.210938 -0.242188 3.328125 -0.320312 3.390625 -0.4375 C 3.453125 -0.550781 3.484375 -0.726562 3.484375 -0.96875 L 3.484375 -6.515625 C 3.484375 -6.773438 3.453125 -6.953125 3.390625 -7.046875 C 3.328125 -7.148438 3.210938 -7.210938 3.046875 -7.234375 C 2.878906 -7.265625 2.582031 -7.28125 2.15625 -7.28125 Z M 2.15625 -7.28125 "/></g></g></g><g fill="#ffffff" fill-opacity="1"><g transform="translate(31.699761, 10.945882)"><g><path d="M 5.625 -1.75 C 5.625 -1.769531 5.644531 -1.773438 5.6875 -1.765625 C 5.738281 -1.765625 5.765625 -1.753906 5.765625 -1.734375 C 5.691406 -1.234375 5.65625 -0.710938 5.65625 -0.171875 C 5.65625 -0.109375 5.640625 -0.0625 5.609375 -0.03125 C 5.585938 -0.0078125 5.539062 0 5.46875 0 L 0.53125 0 C 0.507812 0 0.5 -0.0195312 0.5 -0.0625 C 0.5 -0.113281 0.507812 -0.140625 0.53125 -0.140625 C 0.84375 -0.140625 1.070312 -0.160156 1.21875 -0.203125 C 1.363281 -0.242188 1.460938 -0.320312 1.515625 -0.4375 C 1.566406 -0.550781 1.59375 -0.726562 1.59375 -0.96875 L 1.59375 -6.515625 C 1.59375 -6.753906 1.566406 -6.925781 1.515625 -7.03125 C 1.460938 -7.144531 1.363281 -7.222656 1.21875 -7.265625 C 1.070312 -7.316406 0.84375 -7.34375 0.53125 -7.34375 C 0.507812 -7.34375 0.5 -7.363281 0.5 -7.40625 C 0.5 -7.457031 0.507812 -7.484375 0.53125 -7.484375 L 5.265625 -7.484375 C 5.335938 -7.484375 5.375 -7.445312 5.375 -7.375 L 5.390625 -5.921875 C 5.390625 -5.898438 5.367188 -5.890625 5.328125 -5.890625 C 5.285156 -5.890625 5.265625 -5.898438 5.265625 -5.921875 C 5.265625 -6.328125 5.15625 -6.648438 4.9375 -6.890625 C 4.726562 -7.128906 4.445312 -7.25 4.09375 -7.25 L 3.265625 -7.25 C 2.960938 -7.25 2.738281 -7.226562 2.59375 -7.1875 C 2.445312 -7.15625 2.347656 -7.082031 2.296875 -6.96875 C 2.242188 -6.851562 2.21875 -6.675781 2.21875 -6.4375 L 2.21875 -4.015625 L 3.8125 -4.015625 C 4.175781 -4.015625 4.425781 -4.070312 4.5625 -4.1875 C 4.707031 -4.3125 4.78125 -4.523438 4.78125 -4.828125 C 4.78125 -4.847656 4.804688 -4.859375 4.859375 -4.859375 C 4.910156 -4.859375 4.9375 -4.847656 4.9375 -4.828125 L 4.921875 -3.890625 C 4.921875 -3.660156 4.925781 -3.488281 4.9375 -3.375 L 4.9375 -2.8125 C 4.9375 -2.789062 4.910156 -2.78125 4.859375 -2.78125 C 4.816406 -2.78125 4.796875 -2.789062 4.796875 -2.8125 C 4.796875 -3.164062 4.71875 -3.414062 4.5625 -3.5625 C 4.414062 -3.707031 4.148438 -3.78125 3.765625 -3.78125 L 2.21875 -3.78125 L 2.21875 -1.015625 C 2.21875 -0.785156 2.242188 -0.613281 2.296875 -0.5 C 2.347656 -0.394531 2.441406 -0.320312 2.578125 -0.28125 C 2.722656 -0.25 2.953125 -0.234375 3.265625 -0.234375 L 4.375 -0.234375 C 4.6875 -0.234375 4.957031 -0.367188 5.1875 -0.640625 C 5.414062 -0.921875 5.5625 -1.289062 5.625 -1.75 Z M 5.625 -1.75 "/></g></g></g><g fill="#ffffff" fill-opacity="1"><g transform="translate(39.847339, 10.945882)"><g><path d="M 2.125 -1.015625 C 2.125 -0.785156 2.148438 -0.613281 2.203125 -0.5 C 2.253906 -0.394531 2.347656 -0.320312 2.484375 -0.28125 C 2.628906 -0.25 2.851562 -0.234375 3.15625 -0.234375 L 4.6875 -0.234375 C 5.476562 -0.234375 5.945312 -0.738281 6.09375 -1.75 C 6.09375 -1.769531 6.113281 -1.773438 6.15625 -1.765625 C 6.195312 -1.765625 6.21875 -1.753906 6.21875 -1.734375 C 6.144531 -1.109375 6.109375 -0.585938 6.109375 -0.171875 C 6.109375 -0.109375 6.097656 -0.0625 6.078125 -0.03125 C 6.054688 -0.0078125 6.007812 0 5.9375 0 L 0.4375 0 C 0.414062 0 0.40625 -0.0195312 0.40625 -0.0625 C 0.40625 -0.113281 0.414062 -0.140625 0.4375 -0.140625 C 0.738281 -0.140625 0.960938 -0.160156 1.109375 -0.203125 C 1.265625 -0.242188 1.367188 -0.320312 1.421875 -0.4375 C 1.472656 -0.550781 1.5 -0.726562 1.5 -0.96875 L 1.5 -6.515625 C 1.5 -6.753906 1.472656 -6.925781 1.421875 -7.03125 C 1.367188 -7.144531 1.265625 -7.222656 1.109375 -7.265625 C 0.960938 -7.316406 0.738281 -7.34375 0.4375 -7.34375 C 0.414062 -7.34375 0.40625 -7.363281 0.40625 -7.40625 C 0.40625 -7.457031 0.414062 -7.484375 0.4375 -7.484375 L 1.015625 -7.46875 C 1.347656 -7.445312 1.613281 -7.4375 1.8125 -7.4375 C 2.019531 -7.4375 2.296875 -7.445312 2.640625 -7.46875 L 3.203125 -7.484375 C 3.210938 -7.484375 3.21875 -7.457031 3.21875 -7.40625 C 3.21875 -7.363281 3.210938 -7.34375 3.203125 -7.34375 C 2.890625 -7.34375 2.65625 -7.316406 2.5 -7.265625 C 2.351562 -7.222656 2.253906 -7.144531 2.203125 -7.03125 C 2.148438 -6.914062 2.125 -6.738281 2.125 -6.5 Z M 2.125 -1.015625 "/></g></g></g></g></g></svg>